<svg xmlns="http://www.w3.org/2000/svg" width="359" height="279" viewBox="0 0 359 279" fill="none">
<g id="Search">
<g id="Vector" filter="url(#filter0_d_5485_1005)">
<path d="M175.829 164.436C190.691 160.454 201.968 151.807 209.662 138.495C217.355 125.184 219.183 110.994 215.145 95.9257C211.142 80.986 202.473 69.6433 189.137 61.8976C175.802 54.1518 161.703 52.27 146.841 56.2522C131.851 60.2688 120.55 68.9564 112.938 82.315C105.326 95.6736 103.522 109.823 107.525 124.762C111.562 139.831 120.208 151.214 133.463 158.913C146.717 166.611 160.839 168.452 175.829 164.436ZM179.97 179.891C170.361 182.465 160.869 183.042 151.494 181.62C142.118 180.198 133.487 177.196 125.599 172.615C117.712 168.034 110.812 162.014 104.901 154.557C98.9888 147.1 94.7388 138.541 92.1506 128.882C89.5969 119.352 89.0156 109.879 90.4066 100.465C91.7977 91.0509 94.7546 82.356 99.2775 74.3803C103.8 66.4046 109.766 59.4572 117.174 53.5381C124.582 47.619 133.091 43.3721 142.7 40.7974C152.181 38.257 161.609 37.6978 170.984 39.1197C180.36 40.5417 189.032 43.5669 197.001 48.1955C204.969 52.8241 211.91 58.867 217.821 66.3244C223.733 73.7818 227.966 82.2757 230.519 91.8061C232.728 100.049 233.471 108.201 232.747 116.263C232.024 124.325 230.103 132.018 226.984 139.341L258.941 157.902C260.892 159.036 262.112 160.642 262.6 162.719C263.088 164.797 262.771 166.815 261.647 168.772C260.489 170.601 258.886 171.79 256.836 172.339C254.786 172.888 252.802 172.661 250.885 171.656L218.981 153.288C214.236 159.666 208.566 165.154 201.97 169.751C195.375 174.348 188.042 177.728 179.97 179.891Z" fill="#E5611E"/>
</g>
</g>
<defs>
<filter id="filter0_d_5485_1005" x="-6.3291" y="-57.6456" width="365.151" height="336.024" filterUnits="userSpaceOnUse" color-interpolation-filters="sRGB">
<feFlood flood-opacity="0" result="BackgroundImageFix"/>
<feColorMatrix in="SourceAlpha" type="matrix" values="0 0 0 0 0 0 0 0 0 0 0 0 0 0 0 0 0 0 127 0" result="hardAlpha"/>
<feOffset/>
<feGaussianBlur stdDeviation="48"/>
<feComposite in2="hardAlpha" operator="out"/>
<feColorMatrix type="matrix" values="0 0 0 0 0.898039 0 0 0 0 0.380392 0 0 0 0 0.117647 0 0 0 1 0"/>
<feBlend mode="normal" in2="BackgroundImageFix" result="effect1_dropShadow_5485_1005"/>
<feBlend mode="normal" in="SourceGraphic" in2="effect1_dropShadow_5485_1005" result="shape"/>
</filter>
</defs>
</svg>