<svg xmlns="http://www.w3.org/2000/svg" width="312" height="293" viewBox="0 0 312 293" fill="none">
<g id="Search">
<g id="Vector" filter="url(#filter0_d_5485_1013)">
<path d="M88.1215 111.552C85.4831 126.71 88.5842 140.578 97.4248 153.157C106.265 165.736 118.37 173.363 133.739 176.038C148.977 178.69 162.914 175.596 175.55 166.756C188.187 157.915 195.824 145.916 198.463 130.758C201.124 115.469 197.995 101.562 189.078 89.0371C180.16 76.5123 168.082 68.9238 152.845 66.2715C137.476 63.5964 123.512 66.6522 110.952 75.4387C98.393 84.2252 90.7827 96.2629 88.1215 111.552ZM72.3585 108.808C74.0644 99.0076 77.5341 90.1535 82.7676 82.246C88.0011 74.3384 94.3549 67.7703 101.829 62.5415C109.303 57.3127 117.666 53.585 126.918 51.3583C136.17 49.1317 145.722 48.8758 155.574 50.5906C165.295 52.2826 174.133 55.7394 182.089 60.9612C190.044 66.183 196.689 72.523 202.022 79.981C207.356 87.439 211.15 95.7735 213.403 104.984C215.657 114.195 215.931 123.701 214.226 133.501C212.542 143.171 209.084 151.96 203.851 159.867C198.617 167.775 192.225 174.37 184.674 179.653C177.123 184.935 168.721 188.69 159.469 190.917C150.217 193.143 140.73 193.411 131.01 191.719C122.603 190.255 114.894 187.5 107.885 183.453C100.875 179.405 94.7039 174.427 89.3716 168.517L59.0903 189.702C57.2411 190.996 55.2713 191.427 53.1809 190.996C51.0906 190.565 49.3937 189.428 48.0903 187.585C46.9183 185.766 46.5143 183.811 46.8782 181.72C47.2421 179.629 48.283 177.925 50.0009 176.609L80.0852 155.39C76.2939 148.402 73.7001 140.95 72.3037 133.033C70.9073 125.115 70.9256 117.041 72.3585 108.808Z" fill="#0A78FF"/>
</g>
</g>
<defs>
<filter id="filter0_d_5485_1013" x="-49.251" y="-42.5284" width="360.579" height="335.343" filterUnits="userSpaceOnUse" color-interpolation-filters="sRGB">
<feFlood flood-opacity="0" result="BackgroundImageFix"/>
<feColorMatrix in="SourceAlpha" type="matrix" values="0 0 0 0 0 0 0 0 0 0 0 0 0 0 0 0 0 0 127 0" result="hardAlpha"/>
<feOffset dy="4"/>
<feGaussianBlur stdDeviation="48"/>
<feComposite in2="hardAlpha" operator="out"/>
<feColorMatrix type="matrix" values="0 0 0 0 0.0392157 0 0 0 0 0.470588 0 0 0 0 1 0 0 0 1 0"/>
<feBlend mode="normal" in2="BackgroundImageFix" result="effect1_dropShadow_5485_1013"/>
<feBlend mode="normal" in="SourceGraphic" in2="effect1_dropShadow_5485_1013" result="shape"/>
</filter>
</defs>
</svg>