<svg width="342" height="336" viewBox="0 0 342 336" fill="none" xmlns="http://www.w3.org/2000/svg">
<g id="local_shipping_FILL0_wght400_GRAD0_opsz24 3">
<g id="Vector" filter="url(#filter0_d_5485_1026)">
<path d="M161.825 175.254L151.916 165.576C150.663 164.331 149.097 163.708 147.218 163.708C145.339 163.708 143.716 164.387 142.35 165.746C141.097 166.991 140.47 168.576 140.47 170.5C140.47 172.424 141.097 174.009 142.35 175.254L157.041 189.856C158.408 191.215 160.002 191.894 161.825 191.894C163.647 191.894 165.241 191.215 166.608 189.856L195.65 160.992C197.016 159.633 197.671 158.049 197.614 156.237C197.557 154.426 196.902 152.842 195.65 151.483C194.283 150.125 192.66 149.418 190.781 149.361C188.902 149.304 187.279 149.955 185.912 151.314L161.825 175.254ZM142.691 236.719L132.783 220.079L113.991 216.004C112.283 215.665 110.916 214.787 109.891 213.372C108.866 211.957 108.468 210.401 108.695 208.703L110.575 189.517L97.762 174.915C96.6232 173.669 96.0537 172.198 96.0537 170.5C96.0537 168.802 96.6232 167.331 97.762 166.085L110.575 151.483L108.695 132.297C108.468 130.599 108.866 129.043 109.891 127.628C110.916 126.213 112.283 125.335 113.991 124.996L132.783 120.921L142.691 104.281C143.602 102.81 144.855 101.819 146.45 101.31C148.044 100.801 149.638 100.885 151.233 101.565L169 109.035L186.766 101.565C188.361 100.885 189.955 100.801 191.55 101.31C193.144 101.819 194.397 102.81 195.308 104.281L205.216 120.921L224.008 124.996C225.716 125.335 227.083 126.213 228.108 127.628C229.133 129.043 229.531 130.599 229.304 132.297L227.425 151.483L240.237 166.085C241.376 167.331 241.945 168.802 241.945 170.5C241.945 172.198 241.376 173.669 240.237 174.915L227.425 189.517L229.304 208.703C229.531 210.401 229.133 211.957 228.108 213.372C227.083 214.787 225.716 215.665 224.008 216.004L205.216 220.079L195.308 236.719C194.397 238.19 193.144 239.181 191.55 239.69C189.955 240.199 188.361 240.115 186.766 239.435L169 231.965L151.233 239.435C149.638 240.115 148.044 240.199 146.45 239.69C144.855 239.181 143.602 238.19 142.691 236.719Z" fill="#30D157"/>
</g>
</g>
<defs>
<filter id="filter0_d_5485_1026" x="-3.94629" y="0.982422" width="345.892" height="339.035" filterUnits="userSpaceOnUse" color-interpolation-filters="sRGB">
<feFlood flood-opacity="0" result="BackgroundImageFix"/>
<feColorMatrix in="SourceAlpha" type="matrix" values="0 0 0 0 0 0 0 0 0 0 0 0 0 0 0 0 0 0 127 0" result="hardAlpha"/>
<feOffset/>
<feGaussianBlur stdDeviation="50"/>
<feComposite in2="hardAlpha" operator="out"/>
<feColorMatrix type="matrix" values="0 0 0 0 0.188235 0 0 0 0 0.819608 0 0 0 0 0.341176 0 0 0 0.64 0"/>
<feBlend mode="normal" in2="BackgroundImageFix" result="effect1_dropShadow_5485_1026"/>
<feBlend mode="normal" in="SourceGraphic" in2="effect1_dropShadow_5485_1026" result="shape"/>
</filter>
</defs>
</svg>
